<?xml version="1.0" encoding="UTF-8"?>
<svg id="Layer_2" data-name="Layer 2" xmlns="http://www.w3.org/2000/svg" viewBox="0 0 2080.61 2091.51">
  <defs>
    <style>
      .cls-1 {
        fill: #fff;
      }
    </style>
  </defs>
  <g id="Layer_1-2" data-name="Layer 1">
    <g>
      <path class="cls-1" d="m1199.32,2041.51c-72.68,0-143.39-14.04-210.17-41.74-65.45-27.15-124.49-66.29-175.46-116.33-105.57-103.64-167.05-246.15-173.13-401.26l-.07-1.74.05-1.74c2.66-87.81-19.33-154.51-67.25-203.89-67.6-69.68-187.33-105.01-355.88-105.01-28.93,0-59.54,1.08-90.99,3.22l-64.91,4.42,12.44-63.86c12.61-64.72,29.62-119.41,51.99-167.18,20.69-44.16,45.5-81.39,75.88-113.82,55.94-59.72,120.11-91.51,182.17-122.26,102.33-50.7,198.98-98.58,262.02-277.79l.63-1.8.77-1.75c7.35-16.7,14.4-33.85,21.85-52,41.85-101.87,89.28-217.32,204.92-273.28,69.62-35.13,149.91-53.7,232.24-53.7,64.91,0,128.57,11.12,189.22,33.04,79.57,28.33,139.71,81.58,183.87,162.8,36.52,67.17,57.03,143.51,76.87,217.33,11.26,41.93,21.91,81.54,34.96,117.77,40.66,100.49,109.6,133.15,189.39,170.95,58.09,27.51,118.15,55.96,165.6,112.25,26.01,30.86,45.24,66.46,58.77,108.85,14.35,44.95,21.94,96.41,23.2,157.34l1.15,55.5-55.32-4.64c-20.22-1.69-40.59-2.55-60.54-2.55-211.64,0-397.61,97.27-485.33,253.85-80.88,144.37-68.71,316.48,34.26,484.63l29.75,48.59-52.04,23.19c-78.33,34.91-159.39,52.61-240.93,52.61Z"/>
      <path d="m1106.44,100c58.71,0,117.49,10.26,172.32,30.1,195.61,69.55,205.18,300.93,265.88,468.69,111.96,278.7,425.24,125.49,433.69,532.57-21.86-1.83-43.45-2.73-64.72-2.73-445.82,0-751.44,393.72-493.72,814.6-74.06,33-148.74,48.28-220.58,48.28-268.22,0-497.1-212.91-508.79-511.29,8.84-291.52-235.78-360.41-473.1-360.42-31.82,0-63.46,1.24-94.39,3.34,93.1-477.9,422.47-254.21,570.15-674.02,48.56-110.35,86.15-244.21,203.16-300.59,64.81-32.79,137.4-48.53,210.09-48.53m0-100c-44.18,0-87.98,4.86-130.17,14.46-43.58,9.91-85.37,24.85-124.21,44.41-61.03,29.62-110.92,75.76-152.5,141.05-32.65,51.27-54.96,105.56-76.53,158.06-7.34,17.86-14.27,34.73-21.37,50.86l-1.54,3.49-1.27,3.6c-56.3,160.03-136.06,199.55-237.05,249.58-62.97,31.2-134.35,66.56-196.47,132.89-34.02,36.32-61.71,77.79-84.66,126.79-24.14,51.53-42.39,110.03-55.79,178.83L0,1231.75l129.83-8.83c30.34-2.06,59.81-3.11,87.6-3.11,152.33,0,262.98,31.07,319.99,89.84,38,39.17,55.38,93.97,53.15,167.54l-.11,3.47.14,3.47c3.34,85.29,21.89,166.77,55.13,242.19,32.11,72.86,76.84,137.73,132.93,192.8,55.56,54.54,119.93,97.22,191.33,126.83,72.88,30.23,150.04,45.56,229.33,45.56,88.58,0,176.49-19.16,261.28-56.94l104.09-46.38-59.51-97.18c-93.1-152.04-104.92-306.2-33.28-434.08,78.89-140.82,248.15-228.29,441.71-228.29,18.57,0,37.53.8,56.37,2.38l110.63,9.27-2.3-111c-1.37-65.81-9.73-121.91-25.56-171.51-15.56-48.74-37.86-89.91-68.17-125.87-54.45-64.6-122.44-96.8-182.42-125.21-75.8-35.91-130.7-61.9-164.09-143.62-12.2-34.04-22.5-72.35-33.39-112.88-20.59-76.63-41.88-155.87-81.23-228.24-23.43-43.09-50.42-78.56-82.5-108.43-36.72-34.18-79.92-60.27-128.42-77.56-32.66-11.8-66.73-20.84-101.27-26.87-34.58-6.04-69.85-9.1-104.82-9.1h0Z"/>
    </g>
    <path d="m1244.63,445.36c2.72,59.64-42.16,148.31-110.76,99.97-72.01-49.17-40.98-261.89,68.53-202.01,32.13,23.15,42.43,63.58,42.23,102.04Z"/>
    <path d="m800,435.93c-.66-31.2,16.79-77.62,48.57-95.8,103.77-47.63,131.55,150.16,66.95,200.5-69,62.1-120.31-38.65-115.52-104.71h0Z"/>
  </g>
</svg>