<svg xmlns="http://www.w3.org/2000/svg" xmlns:xlink="http://www.w3.org/1999/xlink" width="900" zoomAndPan="magnify" viewBox="0 0 675 187.499995" height="250" preserveAspectRatio="xMidYMid meet" version="1.0"><defs><g/></defs><g fill="#09001a" fill-opacity="1"><g transform="translate(-2.094405, 180.008372)"><g><path d="M 67.640625 3.421875 C 59.015625 3.421875 51.160156 2.644531 44.078125 1.09375 C 36.992188 -0.445312 30.847656 -2.722656 25.640625 -5.734375 C 20.429688 -8.742188 16.195312 -12.40625 12.9375 -16.71875 C 9.6875 -21.039062 7.488281 -25.96875 6.34375 -31.5 L 36.140625 -43.46875 C 37.117188 -40.53125 39.03125 -37.597656 41.875 -34.671875 C 44.726562 -31.742188 48.472656 -29.382812 53.109375 -27.59375 C 57.742188 -25.800781 63.398438 -24.90625 70.078125 -24.90625 C 76.585938 -24.90625 81.675781 -25.84375 85.34375 -27.71875 C 89.007812 -29.59375 90.84375 -32.316406 90.84375 -35.890625 C 90.84375 -38.492188 89.820312 -40.53125 87.78125 -42 C 85.75 -43.46875 82.738281 -44.8125 78.75 -46.03125 C 74.757812 -47.25 69.753906 -48.507812 63.734375 -49.8125 C 57.378906 -51.113281 51.023438 -52.660156 44.671875 -54.453125 C 38.328125 -56.242188 32.425781 -58.644531 26.96875 -61.65625 C 21.519531 -64.664062 17.128906 -68.613281 13.796875 -73.5 C 10.460938 -78.382812 8.796875 -84.570312 8.796875 -92.0625 C 8.796875 -100.195312 10.953125 -107.234375 15.265625 -113.171875 C 19.578125 -119.117188 25.925781 -123.800781 34.3125 -127.21875 C 42.695312 -130.632812 52.828125 -132.34375 64.703125 -132.34375 C 75.453125 -132.34375 84.894531 -130.957031 93.03125 -128.1875 C 101.175781 -125.425781 107.972656 -121.398438 113.421875 -116.109375 C 118.878906 -110.816406 122.503906 -104.347656 124.296875 -96.703125 L 92.546875 -86.4375 C 91.898438 -90.019531 90.351562 -93.113281 87.90625 -95.71875 C 85.46875 -98.320312 82.332031 -100.359375 78.5 -101.828125 C 74.675781 -103.296875 70.160156 -104.03125 64.953125 -104.03125 C 58.765625 -104.03125 53.921875 -103.050781 50.421875 -101.09375 C 46.921875 -99.132812 45.171875 -96.53125 45.171875 -93.28125 C 45.171875 -90.675781 46.347656 -88.519531 48.703125 -86.8125 C 51.066406 -85.101562 54.40625 -83.675781 58.71875 -82.53125 C 63.039062 -81.394531 68.210938 -80.175781 74.234375 -78.875 C 80.742188 -77.570312 87.09375 -76.066406 93.28125 -74.359375 C 99.46875 -72.648438 105.125 -70.367188 110.25 -67.515625 C 115.375 -64.671875 119.484375 -60.882812 122.578125 -56.15625 C 125.671875 -51.4375 127.21875 -45.414062 127.21875 -38.09375 C 127.21875 -29.625 124.894531 -22.253906 120.25 -15.984375 C 115.613281 -9.722656 108.898438 -4.921875 100.109375 -1.578125 C 91.328125 1.753906 80.503906 3.421875 67.640625 3.421875 Z M 67.640625 3.421875 "/></g></g></g><g fill="#09001a" fill-opacity="1"><g transform="translate(119.742088, 180.008372)"><g><path d="M 65.203125 3.171875 C 57.867188 3.171875 51.4375 2.234375 45.90625 0.359375 C 40.375 -1.503906 35.734375 -4.472656 31.984375 -8.546875 C 28.242188 -12.617188 25.4375 -17.828125 23.5625 -24.171875 C 21.6875 -30.523438 20.75 -38.257812 20.75 -47.375 L 20.75 -98.15625 L 2.6875 -98.15625 L 3.421875 -128.203125 L 15.390625 -128.203125 C 21.242188 -128.359375 25.554688 -129.375 28.328125 -131.25 C 31.097656 -133.125 32.804688 -136.335938 33.453125 -140.890625 L 36.390625 -157.5 L 58.609375 -157.5 L 58.609375 -128.9375 L 89.609375 -128.9375 L 89.609375 -96.9375 L 58.609375 -96.9375 L 58.609375 -49.328125 C 58.609375 -42.816406 60.234375 -38.460938 63.484375 -36.265625 C 66.742188 -34.066406 70.648438 -32.96875 75.203125 -32.96875 C 78.140625 -32.96875 80.988281 -33.289062 83.75 -33.9375 C 86.519531 -34.59375 88.800781 -35.488281 90.59375 -36.625 L 90.59375 -0.484375 C 85.382812 1.140625 80.625 2.15625 76.3125 2.5625 C 72 2.96875 68.296875 3.171875 65.203125 3.171875 Z M 65.203125 3.171875 "/></g></g></g><g fill="#09001a" fill-opacity="1"><g transform="translate(206.41885, 180.008372)"><g><path d="M 75.9375 3.421875 C 65.03125 3.421875 55.382812 1.957031 47 -0.96875 C 38.625 -3.90625 31.503906 -8.179688 25.640625 -13.796875 C 19.773438 -19.410156 15.296875 -26.242188 12.203125 -34.296875 C 9.109375 -42.359375 7.5625 -51.601562 7.5625 -62.03125 C 7.5625 -72.113281 9.023438 -81.46875 11.953125 -90.09375 C 14.890625 -98.726562 19.164062 -106.175781 24.78125 -112.4375 C 30.394531 -118.707031 37.3125 -123.59375 45.53125 -127.09375 C 53.757812 -130.59375 63 -132.34375 73.25 -132.34375 C 83.675781 -132.34375 92.835938 -130.632812 100.734375 -127.21875 C 108.628906 -123.800781 115.140625 -118.835938 120.265625 -112.328125 C 125.390625 -105.816406 129.128906 -97.878906 131.484375 -88.515625 C 133.847656 -79.160156 134.546875 -68.617188 133.578125 -56.890625 L 33.203125 -55.921875 L 33.203125 -76.671875 L 110.609375 -77.40625 L 97.4375 -67.640625 C 98.40625 -75.617188 97.910156 -82.171875 95.953125 -87.296875 C 94.003906 -92.421875 91.035156 -96.203125 87.046875 -98.640625 C 83.054688 -101.085938 78.625 -102.3125 73.75 -102.3125 C 68.050781 -102.3125 63.039062 -100.765625 58.71875 -97.671875 C 54.40625 -94.578125 51.066406 -90.097656 48.703125 -84.234375 C 46.347656 -78.378906 45.171875 -71.21875 45.171875 -62.75 C 45.171875 -49.570312 48.019531 -39.96875 53.71875 -33.9375 C 59.414062 -27.914062 66.742188 -24.90625 75.703125 -24.90625 C 80.097656 -24.90625 83.757812 -25.472656 86.6875 -26.609375 C 89.613281 -27.753906 91.972656 -29.257812 93.765625 -31.125 C 95.554688 -33 96.976562 -35.117188 98.03125 -37.484375 C 99.09375 -39.847656 99.867188 -42.164062 100.359375 -44.4375 L 134.796875 -37.359375 C 133.648438 -31.335938 131.691406 -25.84375 128.921875 -20.875 C 126.160156 -15.914062 122.414062 -11.644531 117.6875 -8.0625 C 112.96875 -4.476562 107.191406 -1.671875 100.359375 0.359375 C 93.523438 2.398438 85.382812 3.421875 75.9375 3.421875 Z M 75.9375 3.421875 "/></g></g></g><g fill="#09001a" fill-opacity="1"><g transform="translate(337.045269, 180.008372)"><g><path d="M 14.65625 0 L 14.65625 -175.328125 L 53.484375 -175.328125 L 53.484375 0 Z M 14.65625 0 "/></g></g></g><g fill="#09001a" fill-opacity="1"><g transform="translate(393.445608, 180.008372)"><g><path d="M 14.65625 0 L 14.65625 -175.578125 L 53.234375 -175.578125 L 53.234375 -79.109375 C 58.117188 -82.367188 62.59375 -85.953125 66.65625 -89.859375 C 70.726562 -93.765625 74.515625 -97.832031 78.015625 -102.0625 C 81.515625 -106.300781 84.609375 -110.65625 87.296875 -115.125 C 89.984375 -119.601562 92.300781 -124.207031 94.25 -128.9375 L 139.4375 -128.9375 C 137.3125 -122.582031 134.378906 -116.269531 130.640625 -110 C 126.898438 -103.738281 122.382812 -97.960938 117.09375 -92.671875 C 111.800781 -87.378906 105.488281 -82.816406 98.15625 -78.984375 C 90.832031 -75.160156 82.53125 -72.597656 73.25 -71.296875 L 73.25 -67.15625 C 84.976562 -69.269531 94.582031 -69.269531 102.0625 -67.15625 C 109.550781 -65.039062 115.535156 -61.617188 120.015625 -56.890625 C 124.492188 -52.171875 127.910156 -46.597656 130.265625 -40.171875 C 132.628906 -33.742188 134.625 -27.4375 136.25 -21.25 L 141.390625 0 L 98.65625 0 L 96.203125 -12.9375 C 94.742188 -20.59375 92.953125 -27.269531 90.828125 -32.96875 C 88.710938 -38.664062 85.660156 -43.0625 81.671875 -46.15625 C 77.691406 -49.25 71.875 -50.796875 64.21875 -50.796875 L 53.234375 -50.796875 L 53.234375 0 Z M 14.65625 0 "/></g></g></g><g fill="#09001a" fill-opacity="1"><g transform="translate(528.222816, 180.008372)"><g><path d="M 73.984375 3.421875 C 60.960938 3.421875 49.484375 0.898438 39.546875 -4.140625 C 29.617188 -9.191406 21.804688 -16.765625 16.109375 -26.859375 C 10.410156 -36.953125 7.5625 -49.566406 7.5625 -64.703125 C 7.5625 -79.847656 10.410156 -92.425781 16.109375 -102.4375 C 21.804688 -112.445312 29.660156 -119.929688 39.671875 -124.890625 C 49.691406 -129.859375 61.210938 -132.34375 74.234375 -132.34375 C 87.253906 -132.34375 98.8125 -129.816406 108.90625 -124.765625 C 119 -119.722656 126.851562 -112.195312 132.46875 -102.1875 C 138.082031 -92.175781 140.890625 -79.601562 140.890625 -64.46875 C 140.890625 -49 138 -36.21875 132.21875 -26.125 C 126.445312 -16.03125 118.472656 -8.582031 108.296875 -3.78125 C 98.117188 1.019531 86.679688 3.421875 73.984375 3.421875 Z M 75.203125 -25.15625 C 78.953125 -25.15625 82.410156 -25.804688 85.578125 -27.109375 C 88.753906 -28.410156 91.523438 -30.441406 93.890625 -33.203125 C 96.253906 -35.972656 98.085938 -39.757812 99.390625 -44.5625 C 100.691406 -49.363281 101.34375 -55.1875 101.34375 -62.03125 C 101.34375 -69.351562 100.609375 -75.578125 99.140625 -80.703125 C 97.671875 -85.828125 95.632812 -89.976562 93.03125 -93.15625 C 90.425781 -96.332031 87.414062 -98.648438 84 -100.109375 C 80.582031 -101.578125 76.921875 -102.3125 73.015625 -102.3125 C 69.429688 -102.3125 66.050781 -101.660156 62.875 -100.359375 C 59.695312 -99.054688 56.96875 -97.019531 54.6875 -94.25 C 52.414062 -91.488281 50.585938 -87.707031 49.203125 -82.90625 C 47.816406 -78.101562 47.125 -72.203125 47.125 -65.203125 C 47.125 -57.867188 47.859375 -51.640625 49.328125 -46.515625 C 50.796875 -41.390625 52.832031 -37.28125 55.4375 -34.1875 C 58.039062 -31.09375 61.007812 -28.8125 64.34375 -27.34375 C 67.675781 -25.882812 71.296875 -25.15625 75.203125 -25.15625 Z M 75.203125 -25.15625 "/></g></g></g></svg>